<svg id="Layer_1" data-name="Layer 1" xmlns="http://www.w3.org/2000/svg" viewBox="0 0 100 100"><defs><style>.cls-1{fill:#d8d8d8;}.cls-2{fill:#262626;}</style></defs><path class="cls-1" d="M50,1A49,49,0,1,1,1,50,49.05,49.05,0,0,1,50,1m0-1a50,50,0,1,0,50,50A50,50,0,0,0,50,0Z"/><path class="cls-2" d="M43,55a1.07,1.07,0,0,0-1.49,0L32,64.33a4.26,4.26,0,0,0,6,6L47.52,61a1,1,0,0,0,.31-.74,1.06,1.06,0,0,0-.31-.75ZM36.55,68.88a2.15,2.15,0,0,1-3,0,2.09,2.09,0,0,1-.62-1.52,2.13,2.13,0,0,1,.63-1.52l8.71-8.64,3,3Z"/><path class="cls-2" d="M58,45.63a1,1,0,0,0,.74-.31l12-12a1.06,1.06,0,0,0-1.5-1.5l-12,12a1.06,1.06,0,0,0,.75,1.8Z"/><path class="cls-2" d="M71,63.48,48.27,40.8A10.56,10.56,0,0,0,34.7,28.06a1.06,1.06,0,0,0-.41,1.75l6,6-4.48,4.48-6-6a1.06,1.06,0,0,0-1.75.41A10.56,10.56,0,0,0,40.8,48.27L63.48,71A5.28,5.28,0,1,0,71,63.48Zm-1.49,6a3.24,3.24,0,0,1-4.48,0L41.85,46.33A1.08,1.08,0,0,0,41.1,46a1,1,0,0,0-.34.06,8.44,8.44,0,0,1-11.09-8.94l5.41,5.41a1.09,1.09,0,0,0,1.5,0l6-6a1,1,0,0,0,0-1.49l-5.41-5.41a8.44,8.44,0,0,1,8.94,11.09,1.07,1.07,0,0,0,.25,1.09L69.46,65A3.16,3.16,0,0,1,69.46,69.46Z"/></svg>