<svg id="Layer_1" data-name="Layer 1" xmlns="http://www.w3.org/2000/svg" viewBox="0 0 100 100"><defs><style>.cls-1{fill:#d8d8d8;}.cls-2{fill:#262626;}</style></defs><path class="cls-1" d="M50,1A49,49,0,1,1,1,50,49.05,49.05,0,0,1,50,1m0-1a50,50,0,1,0,50,50A50,50,0,0,0,50,0Z"/><path class="cls-2" d="M74.93,33.13a1.08,1.08,0,0,0-.29-.7l-7.07-7.07a1.08,1.08,0,0,0-.7-.29L52.8,25h0a1,1,0,0,0-.7.29L25.29,52.1a1,1,0,0,0,0,1.4L46.5,74.71a1,1,0,0,0,1.4,0L74.71,47.9a1,1,0,0,0,.29-.7ZM47.2,72.61,27.39,52.8,53.21,27l13.24.07,6.5,6.5L73,46.79Z"/><path class="cls-2" d="M56.66,42.68l-1.43,1.43c-1.9-1.62-4.16-1.9-5.81-.25-2,2-1.3,3.81-.4,5.73l.24.5-3.61,3.6a2.84,2.84,0,0,1,.1-3.59l-1.59-1.58c-1.64,1.73-1.86,4.3.1,6.57l-1.58,1.58.8.79L45,55.9c2,1.69,4.47,1.92,6.22.18s1.39-4.1.3-6.25l-.16-.28,3.24-3.24a2.39,2.39,0,0,1-.24,3.28L56,51.18c2.05-1.92,1.78-4.32.05-6.27l1.43-1.43ZM49.74,54.44a2.35,2.35,0,0,1-3.28,0l3.33-3.32C50.31,52.28,50.69,53.49,49.74,54.44Zm1.11-5.94c-.49-1-.8-2.16.09-3,.61-.61,1.61-1,2.9.06Z"/><circle class="cls-2" cx="65.02" cy="34.98" r="2.66"/></svg>