<svg id="Layer_1" data-name="Layer 1" xmlns="http://www.w3.org/2000/svg" viewBox="0 0 100 100"><defs><style>.cls-1{fill:#d8d8d8;}.cls-2{fill:#262626;}</style></defs><path class="cls-1" d="M50,1A49,49,0,1,1,1,50,49.05,49.05,0,0,1,50,1m0-1a50,50,0,1,0,50,50A50,50,0,0,0,50,0Z"/><path class="cls-2" d="M72.43,42.28H67.78l-5.14-9a6,6,0,0,0-5.21-3H42.57a6,6,0,0,0-5.21,3l-5.14,9H27.57A2.57,2.57,0,0,0,25,44.85V47.5a2.55,2.55,0,0,0,1,2l2.45,1.94v14a4.3,4.3,0,0,0,4.29,4.29h3.43a4.3,4.3,0,0,0,4.29-4.29V62.86H59.56v2.58a4.3,4.3,0,0,0,4.29,4.29h3.43a4.3,4.3,0,0,0,4.29-4.29v-14L74,49.52a2.55,2.55,0,0,0,1-2V44.85A2.57,2.57,0,0,0,72.43,42.28Zm.85,5.22a.85.85,0,0,1-.32.68l-2.78,2.19a.86.86,0,0,0-.33.68V65.44A2.57,2.57,0,0,1,67.28,68H63.85a2.58,2.58,0,0,1-2.58-2.57V62a.85.85,0,0,0-.85-.86H39.58a.85.85,0,0,0-.85.86v3.43A2.58,2.58,0,0,1,36.15,68H32.72a2.57,2.57,0,0,1-2.57-2.57V51.05a.86.86,0,0,0-.33-.68L27,48.17a.82.82,0,0,1-.32-.67V44.85a.86.86,0,0,1,.85-.86h5.15a.86.86,0,0,0,.75-.43l5.38-9.41A4.29,4.29,0,0,1,42.57,32H57.43a4.29,4.29,0,0,1,3.72,2.16l5.38,9.41a.86.86,0,0,0,.75.43h5.15a.86.86,0,0,1,.85.86Z"/><path class="cls-2" d="M50.85,45.52l-.27-.08v-4a2.09,2.09,0,0,1,1.87,2.17H54.4c.07-2.44-1.56-3.75-3.82-3.88V38h-1v1.76c-2.16.17-3.72,1.38-3.72,3.41,0,2.46,1.54,3.14,3.27,3.76l.45.16V51.5a2.44,2.44,0,0,1-2.14-2.26h-2a4.05,4.05,0,0,0,4.09,4v1.93h1V53.24c2.24-.18,3.91-1.56,3.91-3.7S52.84,46.16,50.85,45.52Zm-1.25-.39c-.92-.31-1.81-.84-1.81-1.93,0-.74.39-1.58,1.81-1.74Zm1,6.36V47.41c1,.37,2,.88,2,2.05A2,2,0,0,1,50.58,51.49Z"/></svg>